<?xml version='1.0' encoding='iso-8859-1'?>
<!DOCTYPE svg PUBLIC '-//W3C//DTD SVG 1.1//EN' 'http://www.w3.org/Graphics/SVG/1.1/DTD/svg11.dtd'>
<svg version="1.1" xmlns="http://www.w3.org/2000/svg" viewBox="0 0 512 512" xmlns:xlink="http://www.w3.org/1999/xlink" enable-background="new 0 0 512 512">
  <g>
    <path d="M384,64V32c0-17.674-14.326-32-32-32H160c-17.673,0-32,14.326-32,32v32H384z"/>
    <path d="m128.54,96c2.509,36.365 14.028,67.963 38.917,88.23 15.046,12.251 24.543,30.007 24.543,49.411v246.359c0,17.673 14.327,32 32,32h64c17.674,0 32-14.327 32-32v-252.254c0-20.139 10.365-38.211 26.166-50.697 23.722-18.745 34.779-46.401 37.263-81.049h-254.889zm127.46,192c-17.673,0-32-14.327-32-32 0-17.674 14.327-32 32-32 17.674,0 32,14.326 32,32 0,17.673-14.326,32-32,32z"/>
  </g>
</svg>
